<svg width="159" height="41" viewBox="0 0 159 41" fill="none" xmlns="http://www.w3.org/2000/svg">
<path d="M9.1632 5.9933L17.181 22.9253V23H13.2966L12.1512 20.3606H5.0547L3.8844 23H0V22.9253L8.0427 5.9933H9.1632ZM8.5905 11.7203C8.2087 12.8491 7.8103 13.8866 7.3953 14.8328L6.1503 17.6216H11.0307L9.7857 14.8328C9.3209 13.704 8.9225 12.6665 8.5905 11.7203Z" fill="#FF0000"/>
<path d="M33.2874 19.5887H35.379V26.7848H31.9677V23H21.3354V26.7848H17.949V19.5887H19.941C20.6714 18.1777 21.1445 16.4679 21.3603 14.4593L22.2318 6.068H33.2874V19.5887ZM24.9459 15.032C24.7799 16.692 24.3981 18.2109 23.8005 19.5887H29.652V9.4793H25.5186L24.9459 15.032ZM45.346 5.9933L53.3638 22.9253V23H49.4794L48.334 20.3606H41.2375L40.0672 23H36.1828V22.9253L44.2255 5.9933H45.346ZM44.7733 11.7203C44.3915 12.8491 43.9931 13.8866 43.5781 14.8328L42.3331 17.6216H47.2135L45.9685 14.8328C45.5037 13.704 45.1053 12.6665 44.7733 11.7203ZM54.6043 23.249L54.1312 20.1614C55.3098 20.0784 56.1398 19.597 56.6212 18.7172C57.1026 17.8208 57.4761 16.2023 57.7417 13.8617L58.6132 6.068H69.9178V23H66.2077V9.4793H61.8502L61.153 15.5051C60.8376 18.2939 60.157 20.261 59.1112 21.4064C58.082 22.5352 56.5797 23.1494 54.6043 23.249ZM85.0549 6.068V9.4793H80.4733V23H76.7632V9.4793H72.2065V6.068H85.0549ZM103.608 6.068V9.4793H99.0267V23H95.3166V9.4793H90.7599V6.068H103.608ZM113.354 23.3486C110.731 23.3486 108.581 22.5186 106.905 20.8586C105.228 19.182 104.39 17.0738 104.39 14.534C104.39 11.961 105.22 9.8528 106.88 8.2094C108.557 6.5494 110.715 5.7194 113.354 5.7194C116.01 5.7194 118.168 6.5494 119.828 8.2094C121.488 9.8528 122.318 11.961 122.318 14.534C122.318 17.0738 121.48 19.182 119.803 20.8586C118.143 22.5186 115.993 23.3486 113.354 23.3486ZM109.594 18.4433C110.54 19.4891 111.794 20.012 113.354 20.012C114.914 20.012 116.168 19.4891 117.114 18.4433C118.06 17.3975 118.533 16.0944 118.533 14.534C118.533 12.9404 118.06 11.629 117.114 10.5998C116.184 9.5706 114.931 9.056 113.354 9.056C111.777 9.056 110.515 9.5706 109.569 10.5998C108.64 11.629 108.175 12.9404 108.175 14.534C108.175 16.0944 108.648 17.3975 109.594 18.4433ZM133.119 4.7483C132.106 4.7483 131.193 4.5159 130.38 4.0511C129.566 3.5697 128.927 2.8974 128.462 2.0342L130.529 0.6647C131.16 1.6109 132.023 2.084 133.119 2.084C134.231 2.084 135.111 1.6026 135.758 0.639799L137.775 2.0342C137.327 2.8974 136.696 3.5697 135.882 4.0511C135.069 4.5159 134.148 4.7483 133.119 4.7483ZM138.87 5.9933H139.966V23H136.256V15.1565C136.256 14.2601 136.289 13.4218 136.356 12.6416C135.708 13.3886 135.061 14.0858 134.413 14.7332L126.246 23.0747H125.175V6.068H128.861V13.9862C128.861 14.783 128.836 15.5632 128.786 16.3268C129.35 15.6628 129.973 14.9905 130.653 14.3099L138.87 5.9933ZM151.6 23.3486C148.993 23.3486 146.877 22.502 145.25 20.8088C143.623 19.1156 142.81 17.024 142.81 14.534C142.81 11.9776 143.648 9.8694 145.325 8.2094C147.001 6.5494 149.134 5.7194 151.724 5.7194C154.148 5.7194 156.281 6.4996 158.123 8.06L156.281 10.6496C155.052 9.5872 153.583 9.056 151.873 9.056C150.296 9.056 149.018 9.5623 148.039 10.5749C147.076 11.5875 146.595 12.9072 146.595 14.534C146.595 16.1276 147.068 17.439 148.014 18.4682C148.96 19.4974 150.189 20.012 151.699 20.012C153.592 20.012 155.127 19.3065 156.306 17.8955L158.522 20.3606C156.663 22.3526 154.355 23.3486 151.6 23.3486Z" fill="black"/>
<path d="M6.9015 29.228V30.9953H4.5279V38H2.6058V30.9953H0.2451V29.228H6.9015ZM11.9504 38.1806C10.5916 38.1806 9.47794 37.7506 8.60934 36.8906C7.74074 36.022 7.30644 34.9298 7.30644 33.614C7.30644 32.281 7.73644 31.1888 8.59644 30.3374C9.46504 29.4774 10.583 29.0474 11.9504 29.0474C13.3264 29.0474 14.4444 29.4774 15.3044 30.3374C16.1644 31.1888 16.5944 32.281 16.5944 33.614C16.5944 34.9298 16.1601 36.022 15.2915 36.8906C14.4315 37.7506 13.3178 38.1806 11.9504 38.1806ZM10.0025 35.6393C10.4927 36.1811 11.142 36.452 11.9504 36.452C12.7588 36.452 13.4081 36.1811 13.8983 35.6393C14.3885 35.0975 14.6336 34.4224 14.6336 33.614C14.6336 32.7884 14.3885 32.109 13.8983 31.5758C13.4167 31.0426 12.7674 30.776 11.9504 30.776C11.1334 30.776 10.4798 31.0426 9.98964 31.5758C9.50804 32.109 9.26724 32.7884 9.26724 33.614C9.26724 34.4224 9.51234 35.0975 10.0025 35.6393ZM23.2993 33.4463C23.7293 33.6269 24.069 33.9064 24.3184 34.2848C24.5678 34.6632 24.6925 35.1018 24.6925 35.6006C24.6925 36.323 24.4345 36.9035 23.9185 37.3421C23.4111 37.7807 22.7489 38 21.9319 38H18.0748V29.228H21.6739C22.4823 29.228 23.1316 29.4387 23.6218 29.8601C24.1206 30.2815 24.37 30.8405 24.37 31.5371C24.37 32.3885 24.0131 33.0249 23.2993 33.4463ZM19.9711 30.7373V32.7755H21.2998C21.6696 32.7755 21.9534 32.6852 22.1512 32.5046C22.349 32.3154 22.4479 32.0574 22.4479 31.7306C22.4479 31.421 22.3404 31.1802 22.1254 31.0082C21.919 30.8276 21.6395 30.7373 21.2869 30.7373H19.9711ZM21.5449 36.4907C21.9233 36.4907 22.22 36.3918 22.435 36.194C22.6586 35.9876 22.7704 35.7124 22.7704 35.3684C22.7704 35.033 22.6586 34.7664 22.435 34.5686C22.22 34.3622 21.9319 34.259 21.5707 34.259H19.9711V36.4907H21.5449ZM29.8039 29.1893L33.9577 37.9613V38H31.9453L31.3519 36.6326H27.6754L27.0691 38H25.0567V37.9613L29.2234 29.1893H29.8039ZM29.5072 32.1563C29.3094 32.7411 29.103 33.2786 28.888 33.7688L28.243 35.2136H30.7714L30.1264 33.7688C29.8856 33.184 29.6792 32.6465 29.5072 32.1563ZM34.9179 38V29.228H38.3751C39.2867 29.228 40.0177 29.5118 40.5681 30.0794C41.1271 30.6384 41.4066 31.3264 41.4066 32.1434C41.4066 32.9604 41.1314 33.6441 40.581 34.1945C40.0392 34.7363 39.2996 35.0072 38.3622 35.0072H36.8271V38H34.9179ZM36.8271 33.4076H38.0913C38.5471 33.4076 38.8911 33.2872 39.1233 33.0464C39.3641 32.8056 39.4845 32.5046 39.4845 32.1434C39.4845 31.765 39.3598 31.4554 39.1104 31.2146C38.8696 30.9738 38.5385 30.8534 38.1171 30.8534H36.8271V33.4076ZM42.6654 38V29.228H44.5746V32.4143H46.3806C47.2148 32.4143 47.9114 32.6809 48.4704 33.2141C49.0294 33.7387 49.3089 34.4052 49.3089 35.2136C49.3089 36.022 49.0294 36.6885 48.4704 37.2131C47.9114 37.7377 47.2148 38 46.3806 38H42.6654ZM50.4957 38V29.228H52.4049V38H50.4957ZM44.5746 36.3875H46.1226C46.501 36.3875 46.8063 36.2843 47.0385 36.0779C47.2793 35.8629 47.3997 35.5748 47.3997 35.2136C47.3997 34.8524 47.2793 34.5643 47.0385 34.3493C46.8063 34.1343 46.501 34.0268 46.1226 34.0268H44.5746V36.3875ZM64.2597 36.2327H65.3433V39.9608H63.576V38H58.0677V39.9608H56.3133V36.2327H57.3453C57.7237 35.5017 57.9688 34.6159 58.0806 33.5753L58.5321 29.228H64.2597V36.2327ZM59.9382 33.872C59.8522 34.732 59.6544 35.5189 59.3448 36.2327H62.3763V30.9953H60.2349L59.9382 33.872ZM66.2835 38.129L66.0384 36.5294C66.649 36.4864 67.079 36.237 67.3284 35.7812C67.5778 35.3168 67.7713 34.4783 67.9089 33.2657L68.3604 29.228H74.217V38H72.2949V30.9953H70.0374L69.6762 34.1171C69.5128 35.5619 69.1602 36.581 68.6184 37.1744C68.0852 37.7592 67.3069 38.0774 66.2835 38.129ZM78.7696 29.228H82.3945V38H80.4853V34.8137H79.4017L77.4538 38H75.3511V37.9355L77.4925 34.6202C76.9335 34.4138 76.4992 34.0741 76.1896 33.6011C75.8886 33.1195 75.7381 32.6078 75.7381 32.066C75.7381 31.2748 76.009 30.604 76.5508 30.0536C77.1012 29.5032 77.8408 29.228 78.7696 29.228ZM80.4853 33.3173V30.8405H79.0147C78.5847 30.8405 78.245 30.9566 77.9956 31.1888C77.7462 31.421 77.6215 31.7177 77.6215 32.0789C77.6215 32.4401 77.7462 32.7368 77.9956 32.969C78.245 33.2012 78.5847 33.3173 79.0147 33.3173H80.4853ZM92.3975 33.4463C92.8275 33.6269 93.1672 33.9064 93.4166 34.2848C93.666 34.6632 93.7907 35.1018 93.7907 35.6006C93.7907 36.323 93.5327 36.9035 93.0167 37.3421C92.5093 37.7807 91.8471 38 91.0301 38H87.173V29.228H90.7721C91.5805 29.228 92.2298 29.4387 92.72 29.8601C93.2188 30.2815 93.4682 30.8405 93.4682 31.5371C93.4682 32.3885 93.1113 33.0249 92.3975 33.4463ZM89.0693 30.7373V32.7755H90.398C90.7678 32.7755 91.0516 32.6852 91.2494 32.5046C91.4472 32.3154 91.5461 32.0574 91.5461 31.7306C91.5461 31.421 91.4386 31.1802 91.2236 31.0082C91.0172 30.8276 90.7377 30.7373 90.3851 30.7373H89.0693ZM90.6431 36.4907C91.0215 36.4907 91.3182 36.3918 91.5332 36.194C91.7568 35.9876 91.8686 35.7124 91.8686 35.3684C91.8686 35.033 91.7568 34.7664 91.5332 34.5686C91.3182 34.3622 91.0301 34.259 90.6689 34.259H89.0693V36.4907H90.6431ZM97.7939 38.1677C96.4093 38.1677 95.2741 37.7721 94.3883 36.9809L95.2397 35.6006C95.9105 36.1854 96.7146 36.4778 97.652 36.4778C98.0476 36.4778 98.3787 36.3789 98.6453 36.1811C98.9205 35.9747 99.0581 35.6952 99.0581 35.3426C99.0581 34.99 98.9377 34.7234 98.6969 34.5428C98.4561 34.3536 98.1207 34.259 97.6907 34.259H96.5555V32.7368H97.6133C97.9401 32.7368 98.1981 32.6508 98.3873 32.4788C98.5765 32.2982 98.6711 32.0617 98.6711 31.7693C98.6711 31.4511 98.5507 31.2017 98.3099 31.0211C98.0777 30.8405 97.7638 30.7502 97.3682 30.7502C96.7232 30.7502 96.0954 30.9695 95.4848 31.4081L94.6979 30.0794C95.6095 29.4 96.5813 29.0603 97.6133 29.0603C98.4475 29.0603 99.1527 29.2925 99.7289 29.7569C100.305 30.2127 100.593 30.7932 100.593 31.4984C100.593 31.9284 100.477 32.3154 100.245 32.6594C100.021 32.9948 99.7375 33.2356 99.3935 33.3818C99.8837 33.5452 100.266 33.8161 100.542 34.1945C100.825 34.5729 100.967 35.0287 100.967 35.5619C100.967 36.2843 100.671 36.8992 100.077 37.4066C99.4924 37.914 98.7313 38.1677 97.7939 38.1677ZM102.404 38V29.228H105.861C106.772 29.228 107.503 29.5118 108.054 30.0794C108.613 30.6384 108.892 31.3264 108.892 32.1434C108.892 32.9604 108.617 33.6441 108.067 34.1945C107.525 34.7363 106.785 35.0072 105.848 35.0072H104.313V38H102.404ZM104.313 33.4076H105.577C106.033 33.4076 106.377 33.2872 106.609 33.0464C106.85 32.8056 106.97 32.5046 106.97 32.1434C106.97 31.765 106.845 31.4554 106.596 31.2146C106.355 30.9738 106.024 30.8534 105.603 30.8534H104.313V33.4076ZM114.369 38.1806C113.011 38.1806 111.897 37.7506 111.028 36.8906C110.16 36.022 109.725 34.9298 109.725 33.614C109.725 32.281 110.155 31.1888 111.015 30.3374C111.884 29.4774 113.002 29.0474 114.369 29.0474C115.745 29.0474 116.863 29.4774 117.723 30.3374C118.583 31.1888 119.013 32.281 119.013 33.614C119.013 34.9298 118.579 36.022 117.71 36.8906C116.85 37.7506 115.737 38.1806 114.369 38.1806ZM112.421 35.6393C112.912 36.1811 113.561 36.452 114.369 36.452C115.178 36.452 115.827 36.1811 116.317 35.6393C116.807 35.0975 117.053 34.4224 117.053 33.614C117.053 32.7884 116.807 32.109 116.317 31.5758C115.836 31.0426 115.186 30.776 114.369 30.776C113.552 30.776 112.899 31.0426 112.409 31.5758C111.927 32.109 111.686 32.7884 111.686 33.614C111.686 34.4224 111.931 35.0975 112.421 35.6393ZM124.622 38.1806C123.272 38.1806 122.175 37.742 121.332 36.8648C120.489 35.9876 120.068 34.904 120.068 33.614C120.068 32.2896 120.502 31.1974 121.371 30.3374C122.24 29.4774 123.345 29.0474 124.686 29.0474C125.942 29.0474 127.047 29.4516 128.002 30.26L127.047 31.6016C126.411 31.0512 125.649 30.776 124.764 30.776C123.947 30.776 123.284 31.0383 122.777 31.5629C122.278 32.0875 122.029 32.7712 122.029 33.614C122.029 34.4396 122.274 35.119 122.764 35.6522C123.254 36.1854 123.891 36.452 124.673 36.452C125.654 36.452 126.449 36.0865 127.06 35.3555L128.208 36.6326C127.245 37.6646 126.049 38.1806 124.622 38.1806ZM129.083 38.129L128.838 36.5294C129.448 36.4864 129.878 36.237 130.128 35.7812C130.377 35.3168 130.571 34.4783 130.708 33.2657L131.16 29.228H137.016V38H135.094V30.9953H132.837L132.476 34.1171C132.312 35.5619 131.96 36.581 131.418 37.1744C130.885 37.7592 130.106 38.0774 129.083 38.129ZM138.912 38V29.228H140.821V32.4143H142.627C143.461 32.4143 144.158 32.6809 144.717 33.2141C145.276 33.7387 145.555 34.4052 145.555 35.2136C145.555 36.022 145.276 36.6885 144.717 37.2131C144.158 37.7377 143.461 38 142.627 38H138.912ZM146.742 38V29.228H148.651V38H146.742ZM140.821 36.3875H142.369C142.747 36.3875 143.052 36.2843 143.285 36.0779C143.525 35.8629 143.646 35.5748 143.646 35.2136C143.646 34.8524 143.525 34.5643 143.285 34.3493C143.052 34.1343 142.747 34.0268 142.369 34.0268H140.821V36.3875ZM149.7 38V37.9742L152.693 33.4721L149.945 29.2538V29.228H152.138L153.196 30.9179C153.454 31.3221 153.682 31.7134 153.88 32.0918C154.06 31.722 154.288 31.3221 154.563 30.8921L155.608 29.228H157.788V29.2538L155.028 33.4721L158.033 37.9742V38H155.815L154.538 36.0134C154.28 35.6006 154.056 35.2179 153.867 34.8653C153.678 35.2179 153.454 35.6006 153.196 36.0134L151.906 38H149.7Z" fill="#474747"/>
</svg>
